<?xml version="1.0" standalone="no"?><!DOCTYPE svg PUBLIC "-//W3C//DTD SVG 1.1//EN" "http://www.w3.org/Graphics/SVG/1.1/DTD/svg11.dtd"><svg t="1731196592016" class="icon" viewBox="0 0 1024 1024" version="1.1" xmlns="http://www.w3.org/2000/svg" p-id="4478" xmlns:xlink="http://www.w3.org/1999/xlink" width="16" height="16"><path d="M332.8 358.4m25.6 0l307.2 0q25.6 0 25.6 25.6l0 51.2q0 25.6-25.6 25.6l-307.2 0q-25.6 0-25.6-25.6l0-51.2q0-25.6 25.6-25.6Z" fill="#1296db" p-id="4479"></path><path d="M332.8 563.2m25.6 0l307.2 0q25.6 0 25.6 25.6l0 51.2q0 25.6-25.6 25.6l-307.2 0q-25.6 0-25.6-25.6l0-51.2q0-25.6 25.6-25.6Z" fill="#1296db" p-id="4480"></path><path d="M512 102.4c226.2272 0 409.6 183.3728 409.6 409.6s-183.3728 409.6-409.6 409.6S102.4 738.2272 102.4 512 285.7728 102.4 512 102.4z m0 51.2C314.0608 153.6 153.6 314.0608 153.6 512s160.4608 358.4 358.4 358.4 358.4-160.4608 358.4-358.4S709.9392 153.6 512 153.6z" fill="#1296db" p-id="4481"></path></svg>