<?xml version="1.0" standalone="no"?><!DOCTYPE svg PUBLIC "-//W3C//DTD SVG 1.1//EN" "http://www.w3.org/Graphics/SVG/1.1/DTD/svg11.dtd"><svg t="1732697706728" class="icon" viewBox="0 0 1138 1024" version="1.1" xmlns="http://www.w3.org/2000/svg" p-id="13296" xmlns:xlink="http://www.w3.org/1999/xlink" width="17.78125" height="16"><path d="M1120.667527 322.038289L874.36807 86.819808a61.574864 61.574864 0 0 0-43.102905-17.239962h-48.028894v61.573865h31.402931v164.406637c0 83.125817 91.131799 89.899802 91.131799 89.899801h169.947625v549.249788a29.555935 29.555935 0 0 1-30.787932 29.555935H91.746798a30.787932 30.787932 0 0 1-30.171934-29.555935V158.249651c0-27.09394 30.171933-27.09394 30.171934-27.09394h184.725592V69.579846H91.746798S0 75.121834 0 158.249651v776.462286a91.130799 91.130799 0 0 0 91.746798 89.284803h955.030892s91.747798-3.694992 91.747797-89.284803V364.525195a61.574864 61.574864 0 0 0-17.85696-42.486906z m-212.433532 3.693992s-30.787932 0-30.787932-30.170933V172.409619l159.479648 155.169658z" fill="#1296db" p-id="13297"></path><path d="M232.754486 342.358244c78.199827 0 105.292768 25.860943 105.292768 70.195845a61.574864 61.574864 0 0 1-44.949901 61.574865 61.574864 61.574864 0 0 1 54.186881 61.574864c0 51.723886-33.866925 75.121834-104.061771 75.121834h-113.29975V342.359244z m-52.339884 109.603759h48.029894c35.096923 0 61.574864-11.083976 61.574864-34.481924s-20.319955-33.250927-61.575864-33.250927h-48.027894z m0 113.297749h52.339884c42.486906 0 61.574864-10.466977 61.574864-36.328919s-26.476942-35.097923-61.574864-35.097923h-52.339884z m338.049254-85.589811v-6.772985c0-14.777967-11.083976-28.323937-41.871908-28.323937a48.644893 48.644893 0 0 0-47.412895 24.629945l-44.949901-6.157986a95.441789 95.441789 0 0 1 94.209792-56.032876c61.575864 0 88.668804 25.860943 88.668804 67.116852v94.209792c0 11.083976 6.772985 13.54697 21.550953 10.467977v29.555934a103.446772 103.446772 0 0 1-30.787932 4.309991 43.102905 43.102905 0 0 1-33.865925-14.161969 89.899802 89.899802 0 0 1 0-12.314973 110.219757 110.219757 0 0 1-73.889837 26.476942c-32.019929 0-68.348849-16.009965-68.34885-51.106887-3.078993-48.028894 44.949901-72.65884 136.696699-81.89482z m-61.575864 95.44179a105.909766 105.909766 0 0 0 61.574864-20.319955v-38.175916c-46.180898 4.30999-90.5158 14.777967-90.5158 39.407913 3.079993 13.54697 11.083976 19.087958 30.171933 19.087958z m196.424566-22.78195a50.491889 50.491889 0 0 0 49.259891 25.244944c22.166951 0 36.32992-10.466977 36.32992-23.397948s-20.935954-21.551952-47.412895-29.555935c-52.339884-14.162969-76.96983-30.787932-76.96983-61.575864s33.866925-56.648875 85.589811-56.648875a86.820808 86.820808 0 0 1 86.821808 49.259891l-45.565899 6.773985a43.717904 43.717904 0 0 0-41.255909-20.319955c-22.78295 0-36.944918 9.851978-36.944919 22.166951s22.78295 22.166951 41.870908 27.092941c57.264874 12.929971 85.589811 28.939936 85.589811 61.574864s-35.713921 61.575864-89.899802 61.575864a98.519783 98.519783 0 0 1-93.593793-52.339885zM923.627962 407.012102a92.978795 92.978795 0 0 1 98.519782 99.75178v19.703956H871.288077a48.644893 48.644893 0 0 0 54.18688 48.643893 56.649875 56.649875 0 0 0 51.107888-24.629946l44.9499 6.773985a96.672787 96.672787 0 0 1-96.057788 55.416878 96.056788 96.056788 0 0 1-103.446771-102.829773 96.056788 96.056788 0 0 1 101.599776-102.830773z m50.491888 84.357814a48.028894 48.028894 0 0 0-50.491888-46.796897 48.644893 48.644893 0 0 0-51.722886 46.796897z m-521.541849 163.789638a94.209792 94.209792 0 0 1 89.899802 54.801879l-49.259892 7.389984a44.949901 44.949901 0 0 0-41.871907-24.629946c-40.63991 0-56.649875 44.333902-61.574864 87.435807a76.96983 76.96983 0 0 1 65.269856-30.786932 81.894819 81.894819 0 0 1 88.667804 84.973813c0 55.416878-34.481924 89.899802-100.367778 89.899801s-98.519783-38.792914-98.519783-115.761744c0-94.825791 35.097923-153.322662 107.756762-153.322662z m-6.157986 232.754486a47.412895 47.412895 0 0 0 49.87589-50.491888 48.028894 48.028894 0 0 0-49.87589-50.490889 50.491889 50.491889 0 1 0 0 100.982777z m253.074441-227.828497h71.426843v165.637635h33.865925v39.407913h-33.865925v54.18588h-49.259892v-54.18588h-139.159693v-30.786932z m22.166951 165.637635V706.267441L642.228583 825.723178zM538.782811 0h61.574864v206.276545h-61.574864z" fill="#1296db" p-id="13298"></path><path d="M412.554089 185.341591h314.649306L569.570743 342.358244 412.554089 185.341591z" fill="#1296db" p-id="13299"></path></svg>