<?xml version="1.0" standalone="no"?><!DOCTYPE svg PUBLIC "-//W3C//DTD SVG 1.1//EN" "http://www.w3.org/Graphics/SVG/1.1/DTD/svg11.dtd"><svg t="1729044539247" class="icon" viewBox="0 0 1024 1024" version="1.1" xmlns="http://www.w3.org/2000/svg" p-id="1066" id="mx_n_1729044539247" width="16" height="16" xmlns:xlink="http://www.w3.org/1999/xlink"><path d="M1021.881379 464.684138a42.548966 42.548966 0 0 0-37.95862-37.958621h-24.187587a63.558621 63.558621 0 0 1-62.675862-52.965517A406.068966 406.068966 0 0 0 880.993103 335.448276a61.616552 61.616552 0 0 1-7.23862-14.30069 63.911724 63.911724 0 0 1 15.183448-66.56l13.064828-13.064827a42.548966 42.548966 0 0 0 2.471724-56.496552q-15.006897-17.655172-31.426207-34.251035t-35.310345-32.132413a42.548966 42.548966 0 0 0-51.906207-1.412414l-9.004138 8.827586-8.827586 8.651035a64.088276 64.088276 0 0 1-78.035862 9.710344 417.191724 417.191724 0 0 0-45.373793-19.067586 62.852414 62.852414 0 0 1-8.121379-2.824827 62.322759 62.322759 0 0 1-21.009656-13.947587 64.264828 64.264828 0 0 1-17.655172-37.252413 60.910345 60.910345 0 0 1 0-16.066207v-10.946207a42.725517 42.725517 0 0 0-35.310345-42.019311h-7.415172C540.601379 0 526.30069 0 512 0s-28.601379 0-42.548966 1.765517h-7.415172a42.548966 42.548966 0 0 0-35.310345 41.842759v19.773793A63.911724 63.911724 0 0 1 385.235862 123.586207l-4.766896 1.588965a388.413793 388.413793 0 0 0-49.434483 20.48l-3.884138 1.942069a64.088276 64.088276 0 0 1-71.856552-13.064827l-13.417931-13.417931a42.548966 42.548966 0 0 0-54.377931-4.943449l-5.649655 4.590345q-16.242759 13.771034-31.426207 28.777931t-29.307586 31.779311l-4.943449 5.826207a42.548966 42.548966 0 0 0 4.943449 54.377931l13.417931 13.417931a63.911724 63.911724 0 0 1 13.064827 71.68 41.136552 41.136552 0 0 1-2.11862 4.413793 394.946207 394.946207 0 0 0-20.48 49.257931 47.492414 47.492414 0 0 1-1.942069 5.296552H123.586207a61.969655 61.969655 0 0 1-14.477241 22.245517 63.735172 63.735172 0 0 1-45.197242 18.714483h-19.42069a42.548966 42.548966 0 0 0-42.01931 35.310344v7.415173C0 483.222069 0 498.052414 0 512q0 21.186207 1.765517 41.842759v7.415172a42.548966 42.548966 0 0 0 41.842759 35.310345h19.773793A63.911724 63.911724 0 0 1 123.586207 638.234483a35.310345 35.310345 0 0 1 1.588965 4.766896 394.416552 394.416552 0 0 0 20.48 49.434483c0 1.235862 1.235862 2.471724 1.942069 3.884138a63.735172 63.735172 0 0 1-12.888275 71.856552l-13.064828 13.064827a42.548966 42.548966 0 0 0-4.766897 52.965518l5.649656 6.708965c9.004138 10.769655 18.537931 21.009655 28.601379 31.073104s20.303448 19.597241 31.073103 28.601379l6.532414 5.473103a42.725517 42.725517 0 0 0 48.904828-0.882758l9.357241-9.357242 8.827586-8.827586a64.088276 64.088276 0 0 1 71.68-12.888276l3.531035 1.765517a398.124138 398.124138 0 0 0 49.964138 20.656552l4.413793 1.412414a64.971034 64.971034 0 0 1 22.951724 14.653793 63.735172 63.735172 0 0 1 18.714483 45.197241v18.891035a42.548966 42.548966 0 0 0 38.135172 42.372414q22.951724 4.943448 46.786207 4.943448c15.889655 0 31.426207 0 46.962759-2.118621a42.725517 42.725517 0 0 0 38.311724-42.372413v-19.244138a63.911724 63.911724 0 0 1 36.89931-57.908966 61.616552 61.616552 0 0 1 13.947586-4.590345 382.411034 382.411034 0 0 0 40.96-17.655172 59.497931 59.497931 0 0 1 12.358621-6.179311 63.558621 63.558621 0 0 1 64.794483 12.005518 54.731034 54.731034 0 0 1 5.473103 5.473103l10.946207 10.946207a42.725517 42.725517 0 0 0 55.084138 4.413793l4.06069-3.354483q17.655172-14.124138 32.308965-29.660689c10.24-10.24 20.303448-21.009655 29.66069-32.308966l3.707586-4.413793a42.548966 42.548966 0 0 0-2.824828-52.965517l-3.001379-3.001379-11.828965-11.828966a63.911724 63.911724 0 0 1-13.594483-70.62069 59.144828 59.144828 0 0 1 3.177931-6.355862 411.012414 411.012414 0 0 0 19.773793-47.668965 52.965517 52.965517 0 0 1 2.118621-6.355862 62.852414 62.852414 0 0 1 14.300689-21.892414 63.735172 63.735172 0 0 1 45.197242-18.714483h17.655172a42.548966 42.548966 0 0 0 42.548966-40.430345Q1024 534.422069 1024 512c0-15.889655 0-31.602759-2.118621-47.315862zM773.649655 512a262.17931 262.17931 0 0 1-26.306207 114.758621 263.415172 263.415172 0 0 1-120.231724 120.761379 250.703448 250.703448 0 0 1-29.837241 12.535172 260.766897 260.766897 0 0 1-85.097931 14.477242 261.12 261.12 0 0 1-84.391724-13.947586 252.822069 252.822069 0 0 1-30.896552-12.711725 263.944828 263.944828 0 0 1-120.231724-120.055172 247.172414 247.172414 0 0 1-12.711724-30.543448 262.355862 262.355862 0 0 1-14.124138-84.568276 268.005517 268.005517 0 0 1 14.124138-85.804138 252.998621 252.998621 0 0 1 12.711724-30.72 262.17931 262.17931 0 0 1 50.317241-70.62069 260.590345 260.590345 0 0 1 100.811035-62.675862 261.12 261.12 0 0 1 84.215172-13.417931 264.827586 264.827586 0 0 1 85.274483 14.477242 254.234483 254.234483 0 0 1 29.837241 12.535172 263.591724 263.591724 0 0 1 120.055173 120.231724A261.826207 261.826207 0 0 1 773.826207 512z m0 0" fill="#2994FF" p-id="1067"></path></svg>