<?xml version="1.0" standalone="no"?><!DOCTYPE svg PUBLIC "-//W3C//DTD SVG 1.1//EN" "http://www.w3.org/Graphics/SVG/1.1/DTD/svg11.dtd"><svg t="1729147494090" class="icon" viewBox="0 0 1024 1024" version="1.1" xmlns="http://www.w3.org/2000/svg" p-id="6895" xmlns:xlink="http://www.w3.org/1999/xlink" width="16" height="16"><path d="M157.4 412h22.5V233.1c0-14.7 13-27 29.3-27H408c9.4 0 17.6 3.9 23.1 9.8l117.2 123.9h266.6c15.9 0 29.4 12.2 29.4 27.2v45h22.2c16.1 0 29.8 12.2 29.8 27.2 0 1.7-0.4 2.9-0.4 4.4l-47.4 347.1c-1 8-5.8 15.1-13 19.5-5.4 4.6-12.8 7.7-20.5 7.7H209.2c-8 0-15.1-3.1-20.6-7.3-7.7-4.6-12.6-12.2-13.4-20.6L128 442.5c-1.9-14.7 9.5-28.4 25.8-30.5h3.6z m46.5 2.2h616v-48.7H547.1c-9.2 0-18-4-24.6-10.9L405.7 228.9H203.9v185.3z m669.9 22.1H150L194.9 796h633.9l45-359.7z" p-id="6896"></path><path d="M814.8 824H209.2c-8.4 0-16.9-3-24-8.4-9-5.6-15-14.9-16-25L122 443.3c-2.3-18.1 11.6-34.8 31.1-37.3l0.8-0.1h19.9V233.1c0-18.3 15.9-33.1 35.4-33.1H408c10.6 0 20.7 4.3 27.5 11.8l115.3 121.9h264c19.5 0 35.4 14.9 35.4 33.3v38.8h16.2c19.8 0 35.8 14.9 35.8 33.3 0 1.3-0.2 2.4-0.3 3.2-0.1 0.4-0.1 0.8-0.1 1.2l-0.1 0.8-47.4 347.1c-1.2 9.6-6.9 18.2-15.5 23.6-6.7 5.8-15.4 9-24 9zM154.2 418c-12.6 1.8-21.6 12.4-20.2 23.7l47.2 347.7c0.6 6.5 4.4 12.4 10.5 16l0.6 0.4c5 3.9 11 6.1 16.8 6.1h605.6c5.9 0 11.9-2.3 16.6-6.3l0.8-0.6c5.7-3.5 9.4-9 10.2-15.1l47.3-346.8c0-1 0.2-1.8 0.3-2.5 0.1-0.6 0.1-1 0.1-1.5 0-11.5-10.8-21.2-23.7-21.2H838v-51c0-11.5-10.7-21.2-23.3-21.2H545.6l-119-125.8c-4.6-5.1-11.4-7.9-18.7-7.9H209.2c-12.8 0-23.3 9.4-23.3 21v185h-31.7z m680 384.1H189.6l-46.4-371.9h737.5l-46.5 371.9z m-633.9-12.2h623.2l43.4-347.6h-710l43.4 347.6z m625.6-369.6H197.8V222.9h210.6L527 350.5c5.5 5.7 12.7 9 20.1 9h278.8v60.8zM210 408.2h603.8v-36.5H547.1c-10.8 0-21-4.5-28.9-12.8L403.1 235H210v173.2z" p-id="6897"></path></svg>