<?xml version="1.0" standalone="no"?><!DOCTYPE svg PUBLIC "-//W3C//DTD SVG 1.1//EN" "http://www.w3.org/Graphics/SVG/1.1/DTD/svg11.dtd"><svg t="1734068580862" class="icon" viewBox="0 0 1024 1024" version="1.1" xmlns="http://www.w3.org/2000/svg" p-id="5764" width="16" height="16" xmlns:xlink="http://www.w3.org/1999/xlink"><path d="M816.384 896H207.616c-43.95008-0.0512-79.5648-35.66592-79.616-79.616V207.616C128 163.712 163.712 128 207.616 128h608.768c43.904 0 79.616 35.712 79.616 79.616v608.768c-0.0512 43.95008-35.66592 79.5648-79.616 79.616zM207.616 174.848a32.85504 32.85504 0 0 0-32.768 32.768v608.768a32.85504 32.85504 0 0 0 32.768 32.768h608.768a32.85504 32.85504 0 0 0 32.768-32.768V207.616a32.85504 32.85504 0 0 0-32.768-32.768H207.616z" fill="#1296db" p-id="5765"></path><path d="M437.76 738.60096l-73.55904-32v-17.664l73.51808-31.82592v20.864l-51.28704 19.62496 51.28704 20.31104v20.68992h0.04096z m48.42496 14.08l26.54208-110.92992h15.44192l-26.88 110.92992h-15.104z m90.41408-95.44192L650.24 689.06496v17.58208l-73.60512 31.97952 0.00512-20.6336 51.328-20.224-51.36896-19.968v-20.56192z m159.70816-291.5584l23.84896 64.06144 22.80448-64.06144h21.58592l-48.7424 124.4672h-21.23776l15.84128-36.5568-35.6864-87.9104h21.58592z m-449.9968-36.73088c16.01536 0 28.54912 3.4816 37.77536 10.61888 8.87808 6.9632 14.44864 17.23392 16.71168 31.16032H320.256c-1.7408-8.00768-5.57056-13.9264-11.14112-17.93024-5.74464-4.00384-13.40416-5.91872-22.80448-5.91872-11.66336 0-20.8896 3.82976-27.67872 11.83744-7.48544 8.35584-11.14112 20.0192-11.14112 35.33824 0 14.62272 3.30752 25.93792 9.92256 33.77152 7.13728 8.35584 18.2784 12.53376 33.42336 12.53376 5.91872 0 11.48928-0.69632 16.71168-2.08896a57.65632 57.65632 0 0 0 13.40416-5.74464V406.9376H288.0512v-17.408h53.26848v52.57216c-6.61504 5.2224-14.10048 9.05216-22.6304 11.83744-9.05216 2.78528-18.97472 4.17792-30.11584 4.17792-19.84512 0-35.16416-6.26688-46.1312-18.80064-10.27072-11.66336-15.31904-26.80832-15.31904-45.2608 0-18.62656 5.04832-33.9456 15.31904-45.95712 10.79296-12.88192 25.41568-19.1488 43.86816-19.1488z m182.784 34.29376c13.57824 0 24.54528 4.352 32.90112 13.40416 8.18176 8.87808 12.35968 20.19328 12.35968 34.11968 0 13.75232-4.17792 25.06752-12.1856 33.77152-8.35584 9.05216-19.49696 13.57824-33.0752 13.57824-13.75232 0-24.71936-4.52608-33.0752-13.57824-8.18176-8.704-12.1856-20.0192-12.1856-33.77152 0-13.9264 4.00384-25.2416 12.35968-34.11968 8.18176-9.05216 19.1488-13.40416 32.90112-13.40416z m104.448 0c13.57824 0 24.54528 4.352 32.90112 13.40416 8.18176 8.87808 12.35968 20.19328 12.35968 34.11968 0 13.75232-4.17792 25.06752-12.1856 33.77152-8.35584 9.05216-19.49696 13.57824-33.0752 13.57824-13.75232 0-24.71936-4.52608-33.0752-13.57824-8.18176-8.704-12.1856-20.0192-12.1856-33.77152 0-13.9264 4.00384-25.2416 12.35968-34.11968 8.18176-9.05216 19.1488-13.40416 32.90112-13.40416z m-168.8576 0c4.352 0 8.18176 0.69632 11.3152 2.26304v19.84512a42.83392 42.83392 0 0 0-12.88192-1.91488c-5.2224 0-9.92256 1.91488-14.10048 6.0928-4.87424 4.70016-7.13728 10.79296-7.13728 18.45248V455.68h-19.67104V365.68064h19.67104v12.88192c2.43712-4.52608 5.2224-8.00768 8.52992-10.4448 4.00384-3.30752 8.704-4.87424 14.27456-4.87424z m243.53792 2.43712l21.58592 65.28 21.58592-65.28h21.58592L679.7312 455.68h-19.84512l-33.24928-89.99936h21.58592zM469.0944 379.43296c-8.35584 0-14.62272 3.13344-19.1488 9.74848-3.82976 5.57056-5.74464 12.88192-5.74464 21.58592 0 8.704 1.91488 15.84128 5.74464 21.41184 4.52608 6.44096 10.79296 9.74848 19.1488 9.74848 8.18176 0 14.62272-3.30752 19.1488-9.74848 3.82976-5.74464 5.91872-12.88192 5.91872-21.41184 0-8.704-2.08896-16.01536-5.91872-21.58592-4.52608-6.61504-10.96704-9.74848-19.1488-9.74848z m104.448 0c-8.35584 0-14.62272 3.13344-19.1488 9.74848-3.82976 5.57056-5.74464 12.88192-5.74464 21.58592 0 8.704 1.91488 15.84128 5.74464 21.41184 4.52608 6.44096 10.79296 9.74848 19.1488 9.74848 8.18176 0 14.62272-3.30752 19.1488-9.74848 3.82976-5.74464 5.91872-12.88192 5.91872-21.41184 0-8.704-2.08896-16.01536-5.91872-21.58592-4.52608-6.61504-10.96704-9.74848-19.1488-9.74848z" fill="#1296db" p-id="5766"></path></svg>