<?xml version="1.0" standalone="no"?><!DOCTYPE svg PUBLIC "-//W3C//DTD SVG 1.1//EN" "http://www.w3.org/Graphics/SVG/1.1/DTD/svg11.dtd"><svg t="1729157035640" class="icon" viewBox="0 0 1024 1024" version="1.1" xmlns="http://www.w3.org/2000/svg" p-id="15739" xmlns:xlink="http://www.w3.org/1999/xlink" width="16" height="16"><path d="M387.657143 168.228571l7.314286 7.314286c-14.628571 36.571429-21.942857 65.828571-29.257143 102.4h73.142857c21.942857-73.142857 51.2-131.657143 73.142857-131.657143 21.942857 0 51.2 58.514286 73.142857 131.657143h73.142857c-7.314286-36.571429-21.942857-73.142857-29.257143-102.4l7.314286-7.314286c58.514286 21.942857 117.028571 58.514286 153.6 109.714286h95.085714C804.571429 153.6 665.6 73.142857 512 73.142857 358.4 73.142857 219.428571 153.6 138.971429 285.257143h87.771428c43.885714-51.2 102.4-95.085714 160.914286-117.028572z m248.685714 687.542858l-7.314286-7.314286c14.628571-29.257143 21.942857-65.828571 29.257143-102.4H585.142857c-21.942857 73.142857-51.2 131.657143-73.142857 131.657143-21.942857 0-51.2-58.514286-73.142857-131.657143H365.714286c7.314286 36.571429 21.942857 73.142857 29.257143 102.4l-7.314286 7.314286c-58.514286-21.942857-117.028571-58.514286-153.6-109.714286H138.971429C219.428571 870.4 358.4 950.857143 512 950.857143c153.6 0 292.571429-80.457143 373.028571-212.114286h-87.771428c-43.885714 51.2-102.4 95.085714-160.914286 117.028572z m36.571429-204.8V416.914286h80.457143v-58.514286h-219.428572v51.2h80.457143v241.371429h58.514286z m307.2-226.742858c0-14.628571-7.314286-21.942857-14.628572-29.257142-7.314286-7.314286-14.628571-14.628571-29.257143-21.942858-14.628571-7.314286-21.942857-7.314286-43.885714-7.314285h-117.028571v292.571428h58.514285V548.571429h58.514286c14.628571 0 29.257143 0 43.885714-7.314286 14.628571-7.314286 21.942857-14.628571 29.257143-21.942857 7.314286-7.314286 14.628571-21.942857 14.628572-29.257143 0-14.628571 7.314286-21.942857 7.314285-36.571429 0-7.314286 0-21.942857-7.314285-29.257143z m-51.2 51.2c0 7.314286-7.314286 7.314286-14.628572 14.628572s-7.314286 7.314286-14.628571 7.314286H833.828571V409.6H899.657143c7.314286 0 14.628571 0 14.628571 7.314286s7.314286 7.314286 14.628572 14.628571c0 7.314286 7.314286 14.628571 7.314285 21.942857-7.314286 14.628571-7.314286 21.942857-7.314285 21.942857zM424.228571 650.971429V416.914286h80.457143v-58.514286h-219.428571v51.2H365.714286v241.371429h58.514285z m-226.742857 0h58.514286v-292.571429h-58.514286v109.714286H95.085714V358.4H36.571429v292.571429h58.514285V526.628571h102.4v124.342858z" fill="#464646" p-id="15740"></path></svg>