<?xml version="1.0" standalone="no"?><!DOCTYPE svg PUBLIC "-//W3C//DTD SVG 1.1//EN" "http://www.w3.org/Graphics/SVG/1.1/DTD/svg11.dtd"><svg t="1733991631125" class="icon" viewBox="0 0 1024 1024" version="1.1" xmlns="http://www.w3.org/2000/svg" p-id="5052" width="16" height="16" xmlns:xlink="http://www.w3.org/1999/xlink"><path d="M226.742857 219.428571V80.457143h570.514286V219.428571H877.714286V73.142857a73.142857 73.142857 0 0 0-73.142857-73.142857H219.428571a73.142857 73.142857 0 0 0-73.142857 73.142857v146.285714h80.457143zM226.742857 804.571429H146.285714v146.285714a73.142857 73.142857 0 0 0 73.142857 73.142857h365.714286a292.717714 292.717714 0 0 0 283.355429-219.428571h-84.187429A212.187429 212.187429 0 0 1 585.142857 943.542857H226.742857V804.571429zM950.857143 292.571429v438.857142H73.142857V292.571429h877.714286zM73.142857 219.428571a73.142857 73.142857 0 0 0-73.142857 73.142858v438.857142a73.142857 73.142857 0 0 0 73.142857 73.142858h877.714286a73.142857 73.142857 0 0 0 73.142857-73.142858V292.571429a73.142857 73.142857 0 0 0-73.142857-73.142858H73.142857z" fill="#1296db" p-id="5053"></path><path d="M950.857143 292.571429v438.857142H73.142857V292.571429h877.714286zM73.142857 219.428571a73.142857 73.142857 0 0 0-73.142857 73.142858v438.857142a73.142857 73.142857 0 0 0 73.142857 73.142858h877.714286a73.142857 73.142857 0 0 0 73.142857-73.142858V292.571429a73.142857 73.142857 0 0 0-73.142857-73.142858H73.142857z" fill="#1296db" p-id="5054"></path><path d="M706.56 567.296c-5.12-31.890286-25.892571-58.733714-87.552-83.748571-21.430857-10.020571-45.348571-17.042286-52.370286-33.206858-2.633143-9.581714-3.072-14.848-1.316571-20.48 4.388571-18.870857 26.624-24.576 44.105143-19.309714a47.396571 47.396571 0 0 1 28.525714 26.258286c30.061714-19.748571 30.061714-19.748571 51.126857-32.768a120.246857 120.246857 0 0 0-17.115428-22.747429c-18.358857-20.553143-42.788571-31.085714-82.651429-30.134857l-20.48 2.56c-19.748571 4.827429-38.473143 15.36-49.810286 29.257143-33.28 37.668571-23.625143 103.277714 16.530286 130.340571 39.789714 29.696 98.011429 36.278857 105.398857 64.292572 7.021714 34.084571-25.380571 44.982857-57.270857 41.033143-23.625143-5.193143-36.717714-17.042286-51.2-38.912l-53.321143 30.646857c6.144 13.970286 13.165714 20.041143 23.625143 32.329143 50.688 51.2 177.517714 48.493714 200.265143-29.257143 0.804571-2.633143 6.948571-20.553143 2.194286-48.128l1.316571 1.974857zM444.708571 356.132571h-65.462857c0 56.466286-0.292571 112.64-0.292571 169.179429 0 35.913143 1.828571 68.900571-4.022857 78.994286-9.581714 20.114286-34.377143 17.554286-45.641143 14.043428-11.483429-5.778286-17.408-13.604571-24.137143-24.941714-1.828571-3.072-3.218286-5.705143-3.730286-5.705143l-53.174857 32.768c8.850286 18.358857 21.869714 34.157714 38.546286 44.178286 24.941714 14.921143 58.441143 19.748571 93.476571 11.849143 22.820571-6.582857 42.496-20.114286 52.809143-41.106286 14.848-27.062857 11.702857-60.342857 11.556572-97.499429 0.365714-59.904 0-119.808 0-180.077714l0.146285-1.682286z" fill="#1296db" p-id="5055"></path></svg>