<?xml version="1.0" standalone="no"?><!DOCTYPE svg PUBLIC "-//W3C//DTD SVG 1.1//EN" "http://www.w3.org/Graphics/SVG/1.1/DTD/svg11.dtd"><svg t="1730728216433" class="icon" viewBox="0 0 1024 1024" version="1.1" xmlns="http://www.w3.org/2000/svg" p-id="7660" xmlns:xlink="http://www.w3.org/1999/xlink" width="16" height="16"><path d="M1016.429758 493.82927l-486.258984-486.258985a25.592578 25.592578 0 0 0-36.341461 0l-486.258985 486.258985a25.592578 25.592578 0 0 0 0 36.34146l486.258985 486.258985a25.592578 25.592578 0 0 0 36.341461 0l486.258984-486.258985a25.592578 25.592578 0 0 0 0-36.34146zM512.000043 962.17345L61.826593 512 512.000043 61.82655 962.173493 512z" fill="#1296db" p-id="7661"></path><path d="M420.122687 347.951574a51.185156 51.185156 0 0 0-72.17107 72.17107L439.573047 512l-91.62143 91.877356a51.185156 51.185156 0 1 0 72.17107 72.17107L512.000043 584.426996l91.877356 91.62143a51.185156 51.185156 0 0 0 72.17107-72.17107L584.427039 512l91.62143-91.877356a51.185156 51.185156 0 0 0-72.17107-72.17107L512.000043 439.573004z" fill="#1296db" p-id="7662"></path></svg>