<?xml version="1.0" standalone="no"?><!DOCTYPE svg PUBLIC "-//W3C//DTD SVG 1.1//EN" "http://www.w3.org/Graphics/SVG/1.1/DTD/svg11.dtd"><svg t="1734272679431" class="icon" viewBox="0 0 1024 1024" version="1.1" xmlns="http://www.w3.org/2000/svg" p-id="4486" width="16" height="16" xmlns:xlink="http://www.w3.org/1999/xlink"><path d="M265.386667 392.248889l51.655111 73.955555a23.665778 23.665778 0 0 0 38.855111-27.022222l-114.346667-163.726222-114.232889 163.669333a23.665778 23.665778 0 0 0 38.798223 27.079111l51.996444-74.410666v371.484444a36.693333 36.693333 0 0 0 36.636444 36.693334h475.704889a23.665778 23.665778 0 0 0 0-47.274667H265.386667V392.248889z m512.227555 184.206222V207.36A36.693333 36.693333 0 0 0 740.920889 170.666667H265.272889a23.665778 23.665778 0 1 0 0 47.331555h465.009778v358.115556l-51.655111-74.069334a23.665778 23.665778 0 0 0-38.798223 27.136l114.289778 163.84 114.119111-163.84a23.665778 23.665778 0 0 0-38.798222-27.079111l-51.825778 74.353778z" fill="#1296db" p-id="4487"></path></svg>