<?xml version="1.0" standalone="no"?><!DOCTYPE svg PUBLIC "-//W3C//DTD SVG 1.1//EN" "http://www.w3.org/Graphics/SVG/1.1/DTD/svg11.dtd"><svg t="1735004649897" class="icon" viewBox="0 0 1024 1024" version="1.1" xmlns="http://www.w3.org/2000/svg" p-id="6537" width="16" height="16" xmlns:xlink="http://www.w3.org/1999/xlink"><path d="M876.08888889 548.40888889c26.69985223 2.42725888 50.97244445 9.70903666 72.81777778 19.41807445v-19.41807445c0-177.18992555-104.37214777-332.5345189-254.86222222-405.35229668 0 26.69985223-7.28177778 50.97244445-16.99081444 72.81777778 118.93570333 63.10874112 199.03525888 189.32622222 199.03525888 332.5345189zM126.06577778 575.10874112c0-9.70903666-2.42725888-19.41807445-2.42725888-26.69985223 0-143.20829667 80.09955555-269.42577778 199.03525888-332.5345189-9.70903666-21.84533333-16.99081443-46.11792555-16.99081444-72.81777778C155.19288889 215.87436999 50.82074112 371.21896334 50.82074112 548.40888889c0 19.41807445 2.42725888 36.40888889 4.85451776 55.82696334 19.41807445-14.56355555 43.69066667-24.27259221 70.3905189-29.12711111zM711.03525888 861.52533333c-60.6814811 41.26340779-133.49925888 63.10874112-211.17155555 63.10874112-65.536 0-126.2174811-16.99081443-182.04444445-46.11792668-14.56355555 21.84533333-33.98163001 38.83614777-53.39970333 50.97244444 67.96325888 41.26340779 148.06281443 67.96325888 235.44414778 67.96326002 99.51763001 0 191.7534811-33.98163001 264.57126001-87.38133333-19.41807445-12.13629667-38.83614777-29.12711111-53.39970446-48.54518557z" fill="#0f2b46" p-id="6538"></path><path d="M499.86370333 135.77481443m-109.22666667 0a109.22666667 109.22666667 0 1 0 218.45333333 0 109.22666667 109.22666667 0 1 0-218.45333333 0Z" fill="#0f2b46" p-id="6539"></path><path d="M160.04740779 766.86222222m-109.22666667 0a109.22666667 109.22666667 0 1 0 218.45333333 0 109.22666667 109.22666667 0 1 0-218.45333333 0Z" fill="#0f2b46" p-id="6540"></path><path d="M863.95259221 742.58963001m-109.22666666 0a109.22666667 109.22666667 0 1 0 218.45333333 0 109.22666667 109.22666667 0 1 0-218.45333333 0Z" fill="#0f2b46" p-id="6541"></path><path d="M303.25570333 618.79940779v7.28177778c0 12.13629667 7.28177778 19.41807445 19.41807445 19.41807331 9.70903666 0 16.99081443-4.8545189 21.84533333-14.56355555l9.70903666-26.6998511h80.09955556l7.28177777 26.6998511c4.8545189 9.70903666 12.13629667 14.56355555 21.84533333 14.56355555 12.13629667 0 19.41807445-4.8545189 19.41807446-16.99081443 0-2.42725888 0-7.28177778-2.42725888-12.13629668l-55.82696334-157.7718511c-7.28177778-16.99081443-16.99081443-24.27259221-31.55437-24.27259334-14.56355555 0-24.27259221 9.70903666-31.55437112 24.27259334l-58.25422222 160.19911112z m89.80859334-138.35377778l26.6998511 84.95407332H366.36444445l26.69985222-84.95407332zM519.28177778 436.75496334c-14.56355555 0-21.84533333 7.28177778-21.84533333 21.84533333v165.05362888c0 14.56355555 7.28177778 19.41807445 21.84533333 19.41807445s21.84533333-7.28177778 21.84533333-19.41807445v-48.54518443h31.55436999c46.11792555-2.42725888 70.3905189-26.69985223 72.81777778-70.3905189-2.42725888-43.69066667-26.69985223-65.536-72.81777778-70.39051889h-53.39970332z m80.09955555 70.39051776c-2.42725888 19.41807445-12.13629667 29.12711111-29.12711111 31.55437113h-29.12711111v-60.68148224h29.12711111c19.41807445 0 29.12711111 9.70903666 29.12711111 29.12711111zM679.48088889 645.49925888c14.56355555 0 21.84533333-7.28177778 21.84533333-19.41807331v-165.05363002c0-14.56355555-7.28177778-21.84533333-21.84533333-21.84533333-14.56355555 0-21.84533333 7.28177778-21.84533334 21.84533333v165.05363002c2.42725888 12.13629667 9.70903666 19.41807445 21.84533334 19.41807331z" fill="#0f2b46" p-id="6542"></path></svg>