<?xml version="1.0" standalone="no"?><!DOCTYPE svg PUBLIC "-//W3C//DTD SVG 1.1//EN" "http://www.w3.org/Graphics/SVG/1.1/DTD/svg11.dtd"><svg t="1735005415854" class="icon" viewBox="0 0 1024 1024" version="1.1" xmlns="http://www.w3.org/2000/svg" p-id="37776" xmlns:xlink="http://www.w3.org/1999/xlink" width="16" height="16"><path d="M576.512 330.752h-311.808c-15.872 0-28.16-15.36-28.16-31.232 0-15.872 12.8-31.232 28.16-31.232h311.808c15.872 0 28.16 15.36 28.16 31.232 0 15.872-12.8 31.232-28.16 31.232z m-161.792 147.456H264.704c-15.872 0-28.16 15.36-28.16 31.232 0 15.872 12.8 31.232 28.16 31.232H414.72c15.872 0 28.16-15.36 28.16-31.232 0-15.872-12.8-31.232-28.16-31.232z m0 211.456H264.704c-15.872 0-28.16 15.36-28.16 31.232 0 15.872 12.8 31.232 28.16 31.232H414.72c15.872 0 28.16-15.36 28.16-31.232 0-15.872-12.8-31.232-28.16-31.232z m224.256 127.488c-45.568 0-90.624-17.408-125.44-51.712-69.12-69.12-69.12-181.248 0-250.368s181.248-69.12 250.368 0 69.12 181.248 0 250.368c-34.304 34.304-79.872 51.712-124.928 51.712z m0-296.96c-30.72 0-61.44 11.776-84.992 35.328-47.104 47.104-47.104 123.392 0 169.984 47.104 47.104 123.392 47.104 169.984 0 47.104-47.104 47.104-123.392 0-169.984-23.552-24.064-54.272-35.328-84.992-35.328z m222.208 357.376c-7.168 0-14.336-2.56-19.968-8.192l-100.352-100.352c-11.264-11.264-11.264-29.184 0-39.936 11.264-11.264 29.184-11.264 39.936 0l100.352 100.352c11.264 11.264 11.264 29.184 0 39.936-5.632 5.12-12.8 8.192-19.968 8.192zM547.84 911.36h-326.144c-46.592 0-84.48-37.888-84.48-84.48V194.56c0-46.592 37.888-84.48 84.48-84.48h537.6c46.592 0 84.48 37.888 84.48 84.48v229.888c0 15.872-12.8 28.16-28.16 28.16-15.872 0-28.16-12.8-28.16-28.16V194.56c0-15.36-12.288-27.648-27.648-27.648h-537.6c-15.36 0-27.648 12.288-27.648 27.648v632.32c0 15.36 12.288 27.648 27.648 27.648h326.144c15.872 0 28.16 12.8 28.16 28.16-0.512 15.872-13.312 28.672-28.672 28.672z" fill="#1296DB" p-id="37777"></path></svg>