<?xml version="1.0" standalone="no"?><!DOCTYPE svg PUBLIC "-//W3C//DTD SVG 1.1//EN" "http://www.w3.org/Graphics/SVG/1.1/DTD/svg11.dtd"><svg t="1735004735862" class="icon" viewBox="0 0 1152 1024" version="1.1" xmlns="http://www.w3.org/2000/svg" p-id="9836" xmlns:xlink="http://www.w3.org/1999/xlink" width="18" height="16"><path d="M233.6 347.2v-232.96C233.6 55.168 281.664 7.04 340.608 7.04h597.12L1152 226.688v441.792h-53.568V280.32h-133.888a78.848 78.848 0 0 1-80.32-80.32V60.672H340.672a53.696 53.696 0 0 0-53.568 53.504v232.96h597.12c29.504 0 53.568 24.128 53.568 53.632v374.848c0 29.44-24.064 53.504-53.568 53.504h-597.12v80.32c0 29.44 24.064 53.568 53.568 53.568h704.256c29.44 0 53.504-24.064 53.504-53.568V613.248H1152v296.32c0 58.944-48.128 107.136-107.072 107.136H340.672a107.328 107.328 0 0 1-107.136-107.136v-80.32H54.144a53.696 53.696 0 0 1-53.568-53.568V400.768c0-29.504 24.064-53.568 53.568-53.568h179.392z m704.192-265.088v117.76c0 13.44 10.688 26.88 26.752 26.88h112.512l-139.264-144.64zM319.36 540.032c-18.816-50.88-53.568-74.944-109.824-77.632-77.632 5.376-117.76 48.128-123.2 133.888 2.688 85.76 45.568 131.2 123.2 133.824 61.568 0 101.76-29.44 115.072-88.32l-48.128-16c-5.376 42.816-29.44 61.44-64.256 61.44-45.568-2.688-69.632-34.688-72.32-93.696 2.688-58.88 26.752-88.32 72.32-91.008 32.192 2.752 53.568 18.816 61.568 48.192l45.568-10.688z m34.752 104.32c13.376 59.008 50.816 85.76 117.76 85.76s99.136-26.752 101.76-77.568c0-32.192-18.816-53.568-53.568-69.696l-48.192-16c-37.44-8.064-56.256-21.44-53.504-37.504 2.688-21.376 18.752-29.44 45.504-32.192 32.192 0 50.88 13.44 56.32 42.88l48.128-10.688c-8-48.192-45.568-74.944-107.136-72.32-58.88 2.688-91.008 26.752-93.696 69.632-2.688 37.44 21.376 61.504 74.88 75.008 13.44 2.688 26.88 5.376 40.192 10.688 29.44 8 42.88 21.376 40.192 40.192-2.688 24.064-18.816 34.752-50.88 37.44-37.44 0-61.504-18.816-66.944-58.944l-50.816 13.376z m498.048-179.264h-53.568l-64.256 190.08c-5.376 16.128-8 24.128-8 26.88 0-5.44-2.688-13.44-7.936-26.88l-66.944-192.768H597.76l101.76 259.776h56.192l96.32-257.088z" fill="#1684FB" p-id="9837"></path></svg>