<?xml version="1.0" standalone="no"?><!DOCTYPE svg PUBLIC "-//W3C//DTD SVG 1.1//EN" "http://www.w3.org/Graphics/SVG/1.1/DTD/svg11.dtd"><svg t="1735005353099" class="icon" viewBox="0 0 1157 1024" version="1.1" xmlns="http://www.w3.org/2000/svg" p-id="33126" xmlns:xlink="http://www.w3.org/1999/xlink" width="18.078125" height="16"><path d="M578.782609 37.843478c156.93913-0.089043 302.124522 85.615304 383.910956 225.28l7.034435 12.466087 4.719304 8.94887h49.018435c45.768348 0.26713 84.23513 33.836522 93.94087 79.248695l1.29113 7.301566 0.75687 7.123478 0.26713 7.257043v253.239653c-0.222609 50.309565-35.617391 92.42713-82.543304 99.728695l-6.767305 0.801392-6.945391 0.311652-49.018435-0.044522-4.763826 9.082435c-75.597913 138.106435-212.101565 226.838261-362.896695 236.677565l-14.157913 0.667826-13.846261 0.222609c-156.894609 0-302.035478-85.615304-383.910957-225.190957l-7.034435-12.466087-4.763826-8.993391h-48.973913c-45.768348-0.178087-84.23513-33.792-93.940869-79.248696l-1.291131-7.212521-0.756869-7.123479-0.267131-7.257043V385.424696c0.222609-50.309565 35.617391-92.471652 82.543305-99.728696l6.767304-0.845913 6.945391-0.26713 48.973913-0.044522c37.264696-71.234783 91.269565-131.250087 156.805566-174.213565a20.168348 20.168348 0 0 1 5.253565-2.626783l3.250087-0.845913 4.140521-0.311652c10.284522 0.311652 19.099826 7.568696 21.726609 17.808695a24.353391 24.353391 0 0 1-10.017391 26.401392 421.665391 421.665391 0 0 0-116.201739 115.311304l-9.037913 13.979826-2.715826 4.496696 442.90226 0.044522-2.671304-6.989914a84.190609 84.190609 0 0 1 0-52.179478l2.715826-7.123478 3.383652-6.945391a76.755478 76.755478 0 0 1 59.881739-40.069566l6.856348-0.356173h72.525913l-9.126956-7.078957a391.791304 391.791304 0 0 0-204.354783-76.978087l-14.781217-0.845913L578.782609 85.74887c-16.918261 0-33.836522 1.113043-50.576696 3.33913l-16.65113 2.626783-18.253913 3.561739h-2.982957a23.418435 23.418435 0 0 1-22.572522-20.346435 24.175304 24.175304 0 0 1 16.294957-26.579478 448.333913 448.333913 0 0 1 75.642435-10.017392L578.782609 37.843478z m444.282434 294.199652H134.099478c-13.267478 0-26.000696 5.609739-35.394782 15.582609-6.678261 7.123478-11.353043 16.027826-13.401044 25.6l-0.890435 5.787826-0.356174 6.455652v253.284174c-0.178087 14.246957 5.075478 27.959652 14.514087 38.066087 6.678261 7.123478 15.137391 12.065391 24.04174 14.246957l5.431652 1.024 6.054956 0.400695 81.474783-0.089043 5.164522-0.578783 5.030956-0.222608h127.910957l4.496695 0.534261 1.558261 0.311652h329.193739a23.151304 23.151304 0 0 1 22.706087 23.596521c0 9.705739-5.787826 18.298435-14.736695 21.904696l-4.006957 1.202087-4.006956 0.400696-270.514087-0.089044 1.424695 3.339131c2.671304 6.989913 4.318609 14.380522 4.986435 21.949217l0.356174 7.657739c0 37.220174-24.175304 69.275826-58.234435 78.447305l-6.500174 1.424695-7.257043 0.890435h-18.120348l9.305043 7.212522a391.212522 391.212522 0 0 0 219.536696 78.580869l14.914783 0.267131c134.188522 0 259.294609-70.032696 334.269217-186.10087l8.370087-13.623652h-90.067478a23.373913 23.373913 0 0 1-22.171826-19.812174l-0.356174-4.274087a24.30887 24.30887 0 0 1 14.558608-21.904696l3.917914-1.335652 4.229565-0.578782h191.888695c23.863652 0 44.076522-17.719652 48.973913-41.583305l0.801392-5.565217 0.311652-5.787826V385.380174a54.583652 54.583652 0 0 0-14.692174-37.798957c-6.678261-7.078957-15.048348-11.976348-23.952696-14.157913l-5.342608-0.979478-6.455653-0.400696zM352.478609 739.506087H236.143304l4.006957 6.767304c10.24 16.428522 21.414957 32.055652 33.613913 46.747826l10.596174 12.243479h68.073739a32.055652 32.055652 0 0 0 27.603478-28.315826l0.311652-4.541218c0-13.801739-7.969391-25.822609-19.277913-30.675478l-4.36313-1.469217-4.229565-0.75687z m401.808695-47.905391c12.822261 0 23.106783 10.818783 23.106783 23.952695 0 13.178435-10.284522 23.997217-23.151304 23.997218a23.552 23.552 0 0 1-23.106783-23.997218c0-13.133913 10.284522-23.952696 23.151304-23.952695zM587.686957 450.114783h-0.534261a21.281391 21.281391 0 0 1 17.007304 7.791304l2.226087 3.383652 1.78087 3.650783 0.133565 0.578782 5.342608-4.36313 6.233044-4.140522c8.147478-4.541217 17.274435-6.767304 26.178783-6.455652a57.433043 57.433043 0 0 1 32.144695 9.305043c10.017391 6.678261 18.031304 16.205913 22.973218 27.514435 5.565217 12.822261 8.281043 26.802087 7.924869 40.514783 0.26713 10.952348-1.335652 21.815652-4.763826 31.788522-2.582261 9.349565-7.123478 17.986783-13.133913 25.288347a59.481043 59.481043 0 0 1-20.168348 16.205913 61.929739 61.929739 0 0 1-24.709565 5.342609 53.069913 53.069913 0 0 1-28.004174-7.123478l-2.938435-1.958957-2.849391-2.092521-2.493217-2.226087v34.771478c0 15.09287-4.897391 25.243826-14.113392 28.672l-3.650782 0.979478-4.096 0.311652c-7.524174 0.934957-14.870261-2.537739-19.723131-10.150956a46.925913 46.925913 0 0 1-3.428174-15.181913l0.089044-155.291826a28.360348 28.360348 0 0 1 5.609739-19.500522 20.880696 20.880696 0 0 1 13.089391-7.43513l3.873392-0.178087zM417.391304 401.67513l3.027479 0.267131a22.305391 22.305391 0 0 1 18.69913 18.69913c0.356174 3.33913 0.445217 6.722783 0.356174 9.928348l-0.311652 4.585739-0.044522 17.051826h5.253565a21.993739 21.993739 0 0 1 8.325565 1.068522l4.006957 1.78087 3.917913 2.582261a19.366957 19.366957 0 0 1 2.893913 3.739826l0.667826-1.157566 2.760348-3.116521a24.130783 24.130783 0 0 1 15.003826-5.342609l0.534261 0.089043v-13.712695l-0.133565-6.945392 0.222608-7.123478a33.302261 33.302261 0 0 1 3.116522-10.952348 21.593043 21.593043 0 0 1 7.212522-8.192 19.812174 19.812174 0 0 1 9.126956-3.205565h3.294609l3.027478 0.222609a22.26087 22.26087 0 0 1 18.699131 18.610087c0.400696 3.383652 0.534261 6.811826 0.445217 10.017391l-0.400695 4.585739v17.051826h4.808347a21.993739 21.993739 0 0 1 8.325566 1.068522l4.006956 1.78087 3.917913 2.582261a19.18887 19.18887 0 0 1 5.654261 13.356521 17.229913 17.229913 0 0 1-9.082435 16.384 36.196174 36.196174 0 0 1-9.171478 3.072l-5.030957 0.623305h-3.428173v58.546087l-0.178087 5.787826 0.133565 5.654261 0.756869 3.116521c0.489739 0.445217 1.068522 0.712348 1.869913 0.801392h17.14087a16.562087 16.562087 0 0 1 12.109913 5.520695c3.294609 3.428174 5.12 8.013913 5.164522 12.777739a20.925217 20.925217 0 0 1-12.777739 19.634087 62.775652 62.775652 0 0 1-27.425392 4.808348 46.258087 46.258087 0 0 1-28.048695-6.678261 31.788522 31.788522 0 0 1-13.579131-19.322435 120.164174 120.164174 0 0 1-2.493217-18.476521l-0.133565-9.260522v-63.042783h-1.558261a22.305391 22.305391 0 0 1-5.253565-1.424695l-2.493218-1.157565-3.561739-2.315131a18.120348 18.120348 0 0 1-3.561739-4.140522 15.983304 15.983304 0 0 1-6.010435 5.476174 36.196174 36.196174 0 0 1-9.171478 3.072l-5.075478 0.623305h-2.582261v58.590608l-0.133565 2.893913-0.044522 2.893913 0.178087 5.60974 0.712348 3.116521c0.489739 0.445217 1.068522 0.712348 1.914434 0.801392h17.096348a16.562087 16.562087 0 0 1 12.154435 5.520695 18.69913 18.69913 0 0 1 5.12 12.911305c0 8.726261-5.342609 16.606609-13.089391 19.456a61.44 61.44 0 0 1-27.915131 4.897391 45.990957 45.990957 0 0 1-25.555478-8.859826 31.788522 31.788522 0 0 1-13.623652-19.366957 120.164174 120.164174 0 0 1-2.448696-18.476521l-0.178087-9.260522v-60.816696l-2.537739-0.133565a23.863652 23.863652 0 0 1-5.342609-1.469217l-2.671304-1.202087-3.917913-2.53774a19.322435 19.322435 0 0 1-5.654261-14.068869 18.253913 18.253913 0 0 1 6.811826-14.558609 24.397913 24.397913 0 0 1 11.486609-4.674782l0.979478-0.044522 0.044522-14.157913-0.133565-3.472696-0.044522-3.472696 0.222609-7.123478a33.480348 33.480348 0 0 1 3.294608-11.264 20.613565 20.613565 0 0 1 7.880348-7.880348 19.812174 19.812174 0 0 1 9.126957-3.205565h3.294608z m-159.476869-4.763826l3.695304 0.178087a22.661565 22.661565 0 0 1 14.157913 7.92487 31.076174 31.076174 0 0 1 6.589218 15.849739l0.222608 4.318609-0.044521 35.661913 2.137043-1.691826 4.719304-3.116522 5.12-2.671304 5.520696-2.226087c5.787826-1.558261 11.753739-2.359652 17.630609-2.359653 9.037913-0.222609 18.031304 2.003478 26.267826 6.589218 7.43513 4.585739 13.623652 11.085913 18.120348 19.188869 2.448696 5.075478 4.185043 10.50713 5.164521 16.651131 0.311652 4.274087 0.445217 8.548174 0.356174 12.644174l-0.356174 6.054956v66.960696c0.445217 7.123478-1.602783 14.246957-5.965913 20.168348a21.370435 21.370435 0 0 1-17.541565 8.102956c-13.57913 0-21.459478-8.45913-22.884174-22.839652l-0.222609-4.986435v-63.710608a47.193043 47.193043 0 0 0-4.006956-16.294957 12.02087 12.02087 0 0 0-12.332522-5.787826 20.524522 20.524522 0 0 0-11.887304 3.739826 27.737043 27.737043 0 0 0-8.325565 11.041391c-1.424696 5.698783-2.270609 11.575652-2.626783 17.497044l-0.089043 8.993391v46.124522a30.72 30.72 0 0 1-5.698783 20.435478 22.171826 22.171826 0 0 1-17.808696 7.969391c-13.623652 0-21.459478-8.503652-22.884174-22.884173l-0.222608-4.986435V425.627826a33.391304 33.391304 0 0 1 6.144-21.192348 21.637565 21.637565 0 0 1 13.356521-7.301565l3.695305-0.178087z m493.033739 157.696l3.962435 0.311653a24.041739 24.041739 0 0 1 13.846261 7.212521c5.030957 4.808348 7.835826 11.575652 7.791304 18.387479a25.421913 25.421913 0 0 1-8.147478 19.634086 23.863652 23.863652 0 0 1-13.935305 5.476174l-1.736348-0.044521-1.246608 1.335652a25.065739 25.065739 0 0 1-11.397565-2.582261l-3.428174-2.048-3.116522-2.537739a24.932174 24.932174 0 0 1-7.301565-18.832696 26.267826 26.267826 0 0 1 6.900869-18.432 24.486957 24.486957 0 0 1 13.846261-7.524174l3.962435-0.356174z m165.932522-157.651478c5.164522-0.445217 10.24 1.202087 15.048347 5.298087a19.010783 19.010783 0 0 1 4.407653 14.246957 88.019478 88.019478 0 0 1-2.582261 10.373565l-1.602783 4.585739-34.05913 147.945739a63.621565 63.621565 0 0 1-3.294609 11.753739 18.521043 18.521043 0 0 1-5.921391 10.24 17.051826 17.051826 0 0 1-12.154435 4.185044c-11.709217 0-19.010783-6.678261-18.966261-18.521044l1.024-8.058435 1.602783-7.969391 34.192695-148.613565c1.78087-6.054957 4.185043-11.931826 7.479653-18.298435a16.829217 16.829217 0 0 1 12.644173-7.301565l2.181566 0.133565z m-74.529392 0h2.092522a19.277913 19.277913 0 0 1 11.219478 2.359652l3.205566 2.226087 0.578782 0.534261c3.294609 3.561739 5.12 8.325565 5.030957 13.712696-0.26713 3.561739-0.75687 7.123478-1.424696 10.596174l-35.617391 152.84313a80.584348 80.584348 0 0 1-1.78087 8.281044l-1.113043 3.60626a16.339478 16.339478 0 0 1-6.099479 10.061913 15.849739 15.849739 0 0 1-12.020869 4.407653c-11.709217 0-19.366957-6.678261-19.366957-18.521044l1.024-8.058435 1.602783-8.013913 34.459826-147.767652c1.024-6.233043 2.849391-12.288 5.921391-19.010782a16.11687 16.11687 0 0 1 8.414609-6.411131l3.873391-0.890435zM637.996522 489.73913a22.706087 22.706087 0 0 0-18.031305 8.459131c-6.144 8.45913-9.082435 19.055304-8.236521 30.72-0.667826 10.017391 2.226087 20.034783 8.147478 27.91513 4.36313 5.787826 10.99687 9.126957 18.075826 8.993392 4.006957 0 7.92487-1.335652 11.308522-3.917913a26.35687 26.35687 0 0 0 9.171478-12.065392c2.048-5.476174 3.294609-11.174957 3.650783-17.007304v-5.832348l-0.222609-6.856348a60.371478 60.371478 0 0 0-2.982957-13.890782 30.185739 30.185739 0 0 0-9.349565-12.688696 18.743652 18.743652 0 0 0-11.486609-3.82887z m95.721739-32.367304a26.045217 26.045217 0 0 1 31.788522-2.715826l3.561739 2.715826 0.356174 0.356174a26.713043 26.713043 0 0 1 7.123478 19.055304 24.486957 24.486957 0 0 1-5.164522 14.514087l-2.448695 2.404174a22.26087 22.26087 0 0 1-17.853218 8.548174 23.373913 23.373913 0 0 1-17.630609-7.613217 25.288348 25.288348 0 0 1-7.212521-17.541565 24.486957 24.486957 0 0 1 7.524174-19.723131z m137.972869-239.927652h-122.434782c-15.805217 1.78087-27.959652 15.938783-27.959652 32.946087 0 15.449043 10.061913 28.538435 23.151304 32.055652l4.051478 0.801391h89.355131l-0.534261 1.246609h83.968l-4.140522-6.989913a423.624348 423.624348 0 0 0-34.459826-47.549217l-10.99687-12.510609zM418.905043 71.991652c12.866783 0 23.151304 10.774261 23.151305 23.952696 0 13.178435-10.284522 23.952696-23.151305 23.952695a23.552 23.552 0 0 1-23.106782-23.952695c0-13.178435 10.24-23.952696 23.151304-23.952696z" fill="#697DFF" p-id="33127"></path></svg>