<?xml version="1.0" standalone="no"?><!DOCTYPE svg PUBLIC "-//W3C//DTD SVG 1.1//EN" "http://www.w3.org/Graphics/SVG/1.1/DTD/svg11.dtd"><svg t="1735005435594" class="icon" viewBox="0 0 1024 1024" version="1.1" xmlns="http://www.w3.org/2000/svg" p-id="40509" xmlns:xlink="http://www.w3.org/1999/xlink" width="16" height="16"><path d="M782.848 728.576m-185.856 0a185.856 185.856 0 1 0 371.712 0 185.856 185.856 0 1 0-371.712 0Z" fill="#FFE200" p-id="40510"></path><path d="M194.56 166.4H128c-16.896 0-30.72-13.824-30.72-30.72s13.824-30.72 30.72-30.72h66.56c16.896 0 30.72 13.824 30.72 30.72s-13.824 30.72-30.72 30.72z" fill="#FFE200" p-id="40511"></path><path d="M283.648 209.92c-16.896 0-30.72-13.824-30.72-30.72v-46.08c0-16.896 13.824-30.72 30.72-30.72s30.72 13.824 30.72 30.72v46.08c0 16.896-13.312 30.72-30.72 30.72zM732.16 209.92c-16.896 0-30.72-13.824-30.72-30.72v-46.08c0-16.896 13.824-30.72 30.72-30.72s30.72 13.824 30.72 30.72v46.08c0 16.896-13.312 30.72-30.72 30.72zM132.608 355.84h742.4v61.44h-742.4zM136.192 529.92h742.4v61.44h-742.4zM136.192 704h728.576v61.44H136.192z" fill="#4E63DD" p-id="40512"></path><path d="M360.448 386.56h61.44v498.688h-61.44zM607.232 386.56h61.44v492.544h-61.44z" fill="#4E63DD" p-id="40513"></path><path d="M638.976 919.04h-62.976c-16.896 0-30.72-13.824-30.72-30.72s13.824-30.72 30.72-30.72h62.976c16.896 0 30.72 13.824 30.72 30.72s-13.824 30.72-30.72 30.72z" fill="#4E63DD" p-id="40514"></path><path d="M888.32 919.04h-139.776c-16.896 0-30.72-13.824-30.72-30.72s13.824-30.72 30.72-30.72h109.056V221.184H156.672v635.904H460.8c16.896 0 30.72 13.824 30.72 30.72s-13.824 30.72-30.72 30.72H125.952c-16.896 0-30.72-13.824-30.72-30.72V190.464c0-16.896 13.824-30.72 30.72-30.72h761.856c16.896 0 30.72 13.824 30.72 30.72v697.344c0.512 17.408-13.312 31.232-30.208 31.232z" fill="#4E63DD" p-id="40515"></path></svg>